# xmcd
# Track frame offsets:
# 150
# 13371
# 25725
# 40626
# 51853
# 68953
# 95199
# 112586
# 126356
# 143678
# 155772
# 174812
# 193685
# 210932
#
# Disc length: 3039 seconds
# Revision: 0
# Processed by: cddbd v1.5PL3 Copyright (c) Steve Scherf et al.
# Submitted via: VisiTrax 2.9.7.197 - For more info visit www.synapsa.com
#
DISCID=ba0bdd0e
DTITLE=Keith Urban - The Ranch
DYEAR=1900
DGENRE=
TTITLE0=Walkin' The Country
TTITLE1=Homespun Love
TTITLE2=Just Some Love
TTITLE3=Some Days You Gotta Dance
TTITLE4=My Last Name
TTITLE5=Desiree
TTITLE6=Freedom's Finally Mine
TTITLE7=Hank Don't Fail Me Now
TTITLE8=Tangled Up In Love
TTITLE9=Clutterbilly
TTITLE10=Man Of Yhe House
TTITLE11=Ghost In The Guitar
TTITLE12=Stuck In The Middle
TTITLE13=Billy
EXTD=
EXTT0=
EXTT1=
EXTT2=
EXTT3=
EXTT4=
EXTT5=
EXTT6=
EXTT7=
EXTT8=
EXTT9=
EXTT10=
EXTT11=
EXTT12=
EXTT13=
PLAYORDER=
